<svg width="339" height="390" viewBox="0 0 339 390" fill="none" xmlns="http://www.w3.org/2000/svg">
<path d="M169.09 14.81L178.09 3.17999C175.513 1.18685 172.348 0.105469 169.09 0.105469C165.832 0.105469 162.667 1.18685 160.09 3.17999L169.09 14.81ZM323.32 60.12L338.04 60.36C338.07 58.4077 337.712 56.4688 336.986 54.6562C336.26 52.8437 335.181 51.1937 333.811 49.8024C332.441 48.4111 330.808 47.3062 329.007 46.5521C327.206 45.798 325.273 45.4098 323.32 45.41V60.12ZM169.09 375.19L160.94 387.44C163.353 389.049 166.189 389.908 169.09 389.908C171.991 389.908 174.827 389.049 177.24 387.44L169.09 375.19ZM15.09 60.12V45.41C13.1383 45.4111 11.2062 45.8003 9.40633 46.555C7.60642 47.3097 5.97455 48.4147 4.60569 49.8059C3.23683 51.1971 2.15829 52.8467 1.43283 54.6586C0.707374 56.4705 0.349478 58.4085 0.379974 60.36L15.09 60.12ZM160.09 26.44C226.86 78.17 303.26 74.84 323.33 74.84V45.41C302.57 45.41 236 48.03 178.11 3.17999L160.09 26.44ZM308.62 59.88C307.52 128.22 304.62 176.43 299.09 212.14C293.62 247.48 285.81 268.65 275.75 283.53C265.56 298.98 252.75 308.15 233.84 319.47C214.73 330.91 190.6 343.24 160.95 362.94L177.25 387.44C205.46 368.64 228.98 356.66 248.95 344.72C269.08 332.65 286.78 319.37 300.13 300.01C313.61 280.07 322.37 254.09 328.13 216.64C333.85 179.56 336.89 129.35 338.02 60.36L308.62 59.88ZM177.24 362.94C147.59 343.24 123.47 330.94 104.39 319.47C85.47 308.16 72.71 298.99 62.55 283.54C52.55 268.67 44.73 247.54 39.28 212.15C33.76 176.43 30.88 128.22 29.77 59.88L0.349976 60.36C1.47998 129.36 4.49997 179.56 10.2 216.63C15.97 254.08 24.71 280.06 38.2 300C51.51 319.36 69.2 332.65 89.31 344.72C109.25 356.65 132.76 368.64 160.98 387.44L177.24 362.94ZM15.06 74.84C34.93 74.84 111.33 78.17 178.06 26.44L160.06 3.17999C102.16 48.03 35.59 45.41 15.06 45.41V74.84Z" fill="#3375BB"/>
</svg>
